<?xml version="1.0" standalone="no"?>
<!DOCTYPE svg PUBLIC "-//W3C//DTD SVG 20010904//EN"
 "http://www.w3.org/TR/2001/REC-SVG-20010904/DTD/svg10.dtd">
<svg version="1.0" xmlns="http://www.w3.org/2000/svg"
 width="981.000000pt" height="981.000000pt" viewBox="0 0 981.000000 981.000000"
 preserveAspectRatio="xMidYMid meet">
<metadata>
Created by potrace 1.11, written by Peter Selinger 2001-2013
</metadata>
<g transform="translate(0.000000,981.000000) scale(0.100000,-0.100000)"
fill="#000000" stroke="none">
<path d="M4479 7435 c-2 -2 -63 -6 -134 -10 -183 -9 -276 -17 -365 -30 -19 -3
-53 -7 -75 -10 -54 -7 -107 -14 -125 -18 -8 -2 -33 -7 -55 -12 -165 -31 -373
-105 -464 -165 -56 -36 -106 -82 -146 -134 -16 -22 -40 -51 -52 -67 -13 -15
-23 -30 -23 -34 0 -4 -9 -20 -20 -35 -53 -75 -176 -354 -236 -540 -42 -128
-96 -314 -109 -380 -2 -8 -4 -15 -5 -15 -7 0 -37 -197 -42 -275 l-3 -45 73 -3
c69 -3 72 -2 73 20 2 63 11 130 25 198 23 110 22 109 28 118 3 5 8 22 11 38 3
16 12 54 20 84 9 30 17 62 19 70 2 8 23 71 46 140 113 339 235 572 357 687 44
41 123 93 147 97 6 1 16 4 21 8 29 18 197 69 268 82 15 3 35 7 45 10 17 5 73
14 127 22 51 6 90 13 90 14 0 0 18 3 40 5 22 1 76 6 120 10 130 12 142 13 315
21 275 13 1029 6 1128 -10 15 -3 69 -8 121 -11 52 -4 104 -9 115 -11 12 -3 41
-7 66 -9 187 -21 416 -82 548 -146 75 -37 128 -80 189 -153 19 -22 123 -196
123 -204 0 -4 13 -32 28 -62 15 -30 34 -71 42 -90 7 -19 19 -48 25 -65 48
-115 137 -390 162 -500 8 -38 11 -50 13 -50 3 0 8 -27 35 -164 2 -13 5 -53 7
-88 l2 -64 71 3 70 3 1 45 c0 41 -18 182 -31 238 -3 12 -7 30 -9 40 -2 10 -11
42 -20 70 -8 29 -13 52 -11 52 2 0 -3 16 -11 35 -8 19 -12 35 -9 35 3 0 1 8
-4 18 -6 11 -12 30 -15 43 -5 28 -92 285 -106 314 -5 11 -19 45 -31 75 -49
128 -159 331 -222 408 -91 112 -181 175 -333 235 -105 41 -286 87 -409 103
-33 4 -62 9 -65 9 -6 2 -95 13 -155 20 -22 3 -76 7 -120 11 -44 3 -105 8 -135
10 -68 6 -1026 15 -1031 9z"/>
<path d="M4528 7145 c-2 -2 -57 -6 -123 -9 -66 -3 -131 -8 -145 -10 -14 -3
-56 -7 -95 -10 -38 -4 -81 -8 -95 -10 -76 -12 -127 -20 -140 -22 -36 -4 -200
-46 -255 -65 -221 -76 -332 -196 -464 -504 -32 -74 -105 -271 -115 -310 -2 -5
-5 -17 -8 -25 -9 -23 -45 -155 -67 -246 -25 -99 -31 -138 -35 -214 l-3 -60
1928 0 c1471 0 1928 3 1931 12 9 27 -23 222 -57 338 -19 69 -38 136 -41 149
-3 13 -9 31 -13 40 -5 9 -9 21 -10 26 -1 13 -30 104 -41 130 -4 11 -23 58 -41
105 -104 273 -230 441 -382 515 -63 30 -147 61 -192 71 -5 1 -37 9 -70 17 -60
15 -97 22 -167 32 -21 3 -55 8 -75 11 -54 8 -98 12 -183 19 -41 3 -95 8 -120
11 -48 6 -917 14 -922 9z m143 -155 c60 -16 112 -54 138 -100 27 -49 33 -86
30 -200 0 -8 0 -80 0 -160 0 -80 0 -152 0 -160 -1 -158 0 -371 3 -389 0 -3 0
-30 -1 -58 -1 -43 -6 -59 -30 -85 l-29 -33 -817 -1 -816 0 5 35 c3 20 14 70
26 111 11 41 22 84 25 95 2 12 14 48 25 80 11 33 22 67 25 75 35 136 162 398
240 498 95 123 265 205 510 246 17 3 46 8 65 11 19 4 55 8 80 11 25 2 58 6 73
8 16 3 72 8 125 11 54 4 98 8 99 9 9 8 192 4 224 -4z m814 -5 c28 -2 75 -6
105 -9 30 -3 71 -7 90 -11 19 -3 49 -7 65 -9 17 -3 46 -8 65 -11 19 -3 44 -7
55 -9 79 -13 211 -56 288 -93 83 -41 153 -104 211 -192 36 -55 96 -162 101
-181 2 -6 31 -72 51 -115 37 -81 164 -502 164 -545 0 -3 -366 -6 -812 -5 -866
0 -837 -1 -867 48 -10 15 -13 133 -13 483 0 255 3 478 7 496 15 68 67 122 150
155 29 12 205 11 340 -2z"/>
<path d="M260 5253 c-81 -16 -78 -15 -120 -37 -135 -71 -170 -255 -70 -369 59
-67 124 -92 357 -137 136 -27 177 -95 95 -158 -73 -55 -234 -37 -365 42 l-57
35 -42 -62 c-23 -34 -46 -65 -52 -70 -27 -19 113 -101 223 -131 66 -18 199
-25 279 -13 154 22 253 135 246 282 -6 146 -101 226 -309 260 -126 21 -212 50
-228 79 -38 70 39 120 173 111 49 -3 83 -13 143 -43 l79 -39 52 71 c53 70 53
71 32 86 -116 88 -286 124 -436 93z"/>
<path d="M8361 5250 c-87 -31 -155 -92 -193 -175 -18 -40 -23 -67 -22 -135 0
-102 23 -158 91 -225 66 -66 122 -89 219 -92 70 -2 88 1 140 26 167 79 234
261 161 434 -7 15 -15 27 -19 27 -5 0 -8 6 -8 13 0 14 -62 75 -100 99 -72 44
-188 56 -269 28z m186 -194 c40 -26 58 -67 56 -123 -4 -106 -128 -168 -218
-109 -85 56 -80 201 8 240 66 29 101 28 154 -8z"/>
<path d="M9335 5259 c-77 -14 -98 -20 -143 -45 -54 -30 -77 -55 -104 -114 -43
-91 -19 -214 54 -275 53 -46 259 -118 287 -101 5 4 12 2 16 -4 3 -5 18 -10 33
-10 34 0 111 -35 127 -57 28 -38 0 -93 -60 -119 -87 -36 -238 -5 -360 75 l-30
20 -48 -69 c-26 -38 -47 -73 -47 -79 0 -15 111 -79 175 -101 75 -26 125 -34
221 -34 161 0 278 55 327 154 22 45 26 63 24 129 -3 82 -17 118 -63 165 -46
46 -108 71 -246 102 -13 3 -27 6 -33 8 -5 1 -32 6 -60 11 -112 18 -165 64
-135 120 18 34 56 48 135 50 84 3 154 -18 227 -68 27 -18 28 -18 45 4 10 12
24 27 31 34 6 8 12 18 12 23 0 5 7 15 16 22 39 33 36 46 -21 84 -30 20 -55 34
-55 31 0 -3 -13 1 -29 9 -63 33 -209 50 -296 35z"/>
<path d="M923 5250 c-16 -4 -18 -15 -17 -75 1 -38 2 -75 3 -81 1 -7 43 -10
122 -9 73 0 123 -4 127 -10 4 -5 7 -167 7 -360 l0 -350 96 -3 96 -3 0 363 -1
363 127 -1 c70 0 128 2 128 5 1 3 2 39 3 80 1 52 -2 75 -11 78 -17 7 -657 9
-680 3z"/>
<path d="M1873 5250 c-17 -5 -18 -27 -17 -435 1 -236 2 -436 3 -442 1 -10 27
-13 95 -13 l93 0 1 118 c0 64 1 127 1 140 1 20 6 22 64 22 l63 0 84 -111 c145
-189 116 -169 241 -169 60 0 109 3 109 6 0 9 -36 59 -128 177 l-84 108 20 20
c12 10 24 19 27 19 13 0 60 50 83 90 70 118 53 283 -38 379 -41 42 -122 81
-183 88 -69 7 -411 9 -434 3z m414 -169 c31 -1 81 -56 89 -98 11 -59 -2 -105
-41 -140 -19 -18 -43 -33 -52 -34 -10 0 -64 -2 -121 -3 -85 -1 -105 1 -111 14
-5 12 -6 159 -2 250 1 13 18 15 109 14 59 -1 117 -2 129 -3z"/>
<path d="M2895 5250 l-30 -5 0 -440 0 -440 338 -3 338 -2 -3 82 -3 83 -232 1
c-128 0 -236 3 -239 7 -6 6 -8 93 -5 163 1 21 4 22 206 22 113 -1 209 2 212 6
10 10 9 156 -2 159 -5 2 -101 3 -212 3 -112 -1 -203 1 -204 4 0 3 -1 45 -2 93
-2 71 1 90 13 96 8 4 117 7 243 6 l227 -1 0 83 0 83 -27 1 c-163 3 -595 3
-618 -1z"/>
<path d="M3839 5240 c-1 -20 -1 -829 0 -857 l1 -23 335 0 c184 0 335 3 336 8
7 48 3 152 -5 154 -6 1 -108 2 -226 4 -118 1 -222 3 -231 3 -14 1 -17 15 -17
95 l-1 94 187 0 c103 0 199 1 213 1 l27 1 -2 83 -1 82 -205 2 c-113 0 -209 1
-213 2 -5 1 -7 45 -5 98 l3 97 232 1 c127 0 235 3 239 8 14 14 12 149 -3 154
-7 3 -159 6 -338 7 -283 1 -325 -1 -326 -14z"/>
<path d="M4739 5250 c-22 -5 -24 -21 -20 -148 1 -17 12 -18 129 -18 l127 1 3
-362 2 -363 94 0 c81 0 94 2 97 18 2 9 4 171 4 359 -1 229 3 344 10 346 5 2
60 3 120 2 61 -1 115 0 120 2 10 3 12 149 2 160 -7 7 -659 10 -688 3z"/>
<path d="M6172 5249 c-16 -6 -17 -41 -15 -435 0 -236 2 -435 2 -442 1 -21 469
-12 529 10 133 50 196 172 154 303 -17 52 -90 135 -118 135 -9 0 4 18 30 43
51 49 66 92 60 172 -9 124 -79 193 -214 210 -70 9 -406 12 -428 4z m396 -173
c38 -12 61 -60 51 -104 -10 -47 -41 -72 -90 -73 -21 0 -69 0 -106 -1 l-68 0
-2 83 c-2 46 -1 89 1 94 4 12 179 12 214 1z m49 -366 c56 -36 54 -129 -4 -162
-24 -14 -53 -19 -125 -20 -155 -1 -139 -14 -137 103 l1 101 122 -4 c82 -3 128
-8 143 -18z"/>
<path d="M7147 5248 c-7 -4 -11 -141 -11 -435 -1 -235 0 -434 2 -440 3 -9 32
-13 98 -13 l94 0 0 140 0 140 64 0 65 0 58 -76 c32 -42 63 -83 68 -92 6 -9 16
-22 23 -30 7 -8 24 -29 38 -48 l26 -34 114 0 c63 0 114 4 114 9 0 5 -4 11 -8
13 -5 2 -35 39 -68 83 -32 44 -61 82 -65 85 -14 12 -79 104 -79 111 0 4 9 11
21 14 36 12 98 80 123 136 87 194 -26 407 -231 435 -64 9 -432 11 -446 2z
m420 -167 c12 -1 36 -14 53 -29 63 -58 54 -180 -17 -223 -30 -19 -50 -22 -151
-23 l-117 -1 -5 129 c-3 87 -1 133 6 141 9 9 116 12 231 6z"/>
<path d="M8151 4518 c-3 -10 -6 -48 -5 -85 l1 -68 316 -3 317 -2 1 25 c1 14 1
45 1 70 0 76 1 75 -39 75 -21 0 -47 0 -58 1 -11 0 -54 0 -95 0 -41 0 -155 1
-254 2 -161 2 -179 0 -185 -15z"/>
<path d="M4477 3963 c-7 -12 -67 -125 -127 -238 -57 -109 -114 -215 -166 -312
-19 -34 -34 -66 -34 -71 0 -5 32 -9 71 -9 56 0 72 3 77 16 3 9 8 18 11 21 4 3
12 17 18 33 l13 27 143 0 143 0 28 -48 28 -49 74 0 73 0 -56 106 c-30 58 -68
129 -83 156 -15 28 -49 91 -75 140 -129 244 -129 243 -138 228z m42 -325 c46
-95 47 -92 -36 -93 -40 -1 -73 1 -73 3 0 8 70 152 75 152 2 0 17 -28 34 -62z"/>
<path d="M4985 3653 l1 -318 67 -1 c55 -1 67 2 68 15 0 9 1 87 0 174 0 86 2
157 5 157 2 0 17 -11 32 -24 15 -13 52 -45 82 -71 30 -26 69 -59 85 -74 124
-107 182 -158 199 -173 11 -10 22 -18 25 -18 5 0 6 602 2 631 -1 4 -30 7 -66
8 l-65 1 -1 -58 c0 -31 -1 -112 -1 -180 -1 -130 1 -127 -44 -87 -215 193 -377
335 -384 335 -3 0 -5 -143 -5 -317z"/>
<path d="M5917 3959 c-70 -16 -127 -63 -145 -120 -13 -39 -8 -115 9 -135 6 -8
8 -14 4 -14 -3 0 7 -11 23 -25 28 -23 122 -70 122 -60 0 3 12 0 26 -5 14 -6
40 -12 58 -14 59 -7 117 -29 127 -49 37 -69 -74 -116 -187 -79 -46 15 -108 45
-116 56 -4 5 -12 3 -20 -5 -24 -26 -58 -78 -58 -88 0 -18 82 -64 146 -82 128
-36 279 -12 332 50 48 58 60 147 28 209 -34 66 -90 91 -285 128 -48 9 -81 34
-81 59 0 59 121 78 216 34 27 -13 51 -26 54 -30 8 -12 21 1 57 52 l32 46 -42
24 c-23 13 -58 30 -77 37 -43 17 -171 23 -223 11z"/>
<path d="M2584 3648 l1 -313 60 -1 c33 0 65 1 71 3 7 3 10 104 10 313 l0 310
-72 0 -72 0 2 -312z"/>
<path d="M3530 3955 c0 -12 304 -625 311 -625 7 0 309 605 309 620 0 6 -29 10
-70 10 l-71 0 -81 -170 c-45 -93 -84 -170 -87 -170 -3 1 -17 24 -30 53 -13 29
-49 104 -80 167 l-56 115 -72 3 c-40 2 -73 0 -73 -3z"/>
<path d="M7039 3938 c-4 -125 1 -591 6 -596 8 -8 135 -10 136 -2 3 19 4 597 1
608 -3 8 -27 12 -73 12 -65 0 -69 -1 -70 -22z"/>
<path d="M2551 3078 c-8 -81 -6 -111 9 -113 20 -3 161 -17 178 -18 6 0 12 -5
13 -11 0 -6 2 -74 3 -151 1 -77 6 -149 10 -160 38 -100 89 -165 159 -202 169
-88 377 -12 455 167 13 31 21 126 22 256 l0 41 38 -2 c128 -9 381 -24 512 -30
630 -29 1613 -25 2130 10 41 2 125 7 185 11 61 3 113 8 118 11 9 6 9 6 12
-122 2 -122 12 -165 49 -229 57 -98 149 -149 270 -152 89 -2 126 10 197 62
102 74 130 150 132 353 2 122 4 146 17 147 15 1 110 12 160 19 14 2 28 4 31 4
6 1 4 28 -5 111 -3 23 -7 25 -47 24 -39 0 -102 -6 -194 -18 -16 -2 -64 -7
-105 -11 -41 -4 -88 -9 -105 -10 -16 -2 -61 -6 -100 -10 -38 -3 -86 -8 -105
-10 -19 -2 -78 -6 -130 -10 -52 -3 -111 -8 -130 -10 -30 -3 -168 -11 -335 -20
-94 -5 -380 -16 -530 -21 -170 -5 -933 -5 -1100 0 -280 9 -790 33 -875 41 -19
2 -82 7 -140 10 -58 4 -121 9 -140 11 -19 2 -64 6 -100 9 -36 2 -87 7 -115 10
-69 8 -130 14 -200 21 -33 3 -71 7 -85 9 -14 1 -54 6 -90 10 l-66 6 -3 -33z"/>
</g>
</svg>
