<svg id="Layer_1" data-name="Layer 1" xmlns="http://www.w3.org/2000/svg" viewBox="0 0 981 505.94"><defs><style>.cls-1{fill:#fff;}</style></defs><title>STREET_BROS_LOGO_WHITE</title><path class="cls-1" d="M389.67,414.37,358.06,350.3H373l16.71,34.61,16.79-34.61h15Z" transform="translate(-5.56 -2.15)"/><path class="cls-1" d="M454.09,348.24l34.35,64.59H473.62l-5-9.59H439.44l-4.8,9.59h-14.9Zm8.05,43.43-8.05-16.36-8,16.36Z" transform="translate(-5.56 -2.15)"/><path class="cls-1" d="M517.65,412.83H504.2V348.24l43.18,38.21V350.3h13.53v64.5l-43.26-37.6Z" transform="translate(-5.56 -2.15)"/><path class="cls-1" d="M609,401.87c7.45,0,11.57-3.43,11.57-6.94,0-5-6.69-6.26-14-7.54-7.88-1.29-24.84-4.2-24.84-19.19s13.79-18.93,24.84-18.93,17.91,3.34,24.76,8.39l-7.54,10.28c-5.4-3.85-11.65-6.42-17.73-6.42-3.94,0-10.79,1.2-10.79,6.17,0,4.45,6.76,5.48,12.42,6.68,10.19,2.14,26.38,3.43,26.38,20.22,0,13-10.11,19.44-24.93,19.44-13.53,0-22.44-4.8-28.27-9.76l7.2-10.37C592.61,397.67,601.78,401.87,609,401.87Z" transform="translate(-5.56 -2.15)"/><path class="cls-1" d="M45.52,294.44c10.6,0,16.45-4.87,16.45-9.87,0-7.07-9.5-8.89-19.86-10.72-11.21-1.83-35.33-6-35.33-27.29s19.61-26.92,35.33-26.92,25.46,4.75,35.21,11.93L66.6,246.19c-7.68-5.48-16.57-9.13-25.22-9.13-5.61,0-15.35,1.7-15.35,8.77,0,6.33,9.62,7.8,17.66,9.5,14.5,3,37.53,4.87,37.53,28.75,0,18.52-14.38,27.66-35.45,27.66-19.25,0-31.92-6.83-40.21-13.89L15.8,283.11C22.25,288.47,35.29,294.44,45.52,294.44Z" transform="translate(-5.56 -2.15)"/><path class="cls-1" d="M141.28,237.67V310H121.91V237.67H96V221h71.15v16.69Z" transform="translate(-5.56 -2.15)"/><path class="cls-1" d="M191.12,310V221h39.59c19.13,0,32.16,12.67,32.16,30.94,0,12.91-7.06,23.51-18.15,28.26,7.68,9.63,15.84,20.35,23,29.85h-23c-7.31-9.14-14-18-21.32-27.77H210.24V310Zm39.59-44.47c6,0,13-4.38,13-13.64,0-4.63-1.71-14.25-13-14.25H210.24v27.89Z" transform="translate(-5.56 -2.15)"/><path class="cls-1" d="M311.24,257.52h42.64v16.82H311.24v19h48.25V310H292V221h67.49v16.69H311.24Z" transform="translate(-5.56 -2.15)"/><path class="cls-1" d="M408.71,257.52h42.64v16.82H408.71v19H457V310H389.47V221H457v16.69H408.71Z" transform="translate(-5.56 -2.15)"/><path class="cls-1" d="M522.88,237.67V310H503.51V237.67h-26V221H548.7v16.69Z" transform="translate(-5.56 -2.15)"/><path class="cls-1" d="M676.14,263.49C684.06,266.17,691,274.7,691,284.2,691,304.06,675.9,310,659.82,310h-38.5V221h37c17.31,0,29,6.45,29,24.73C687.35,253.75,682.72,260.81,676.14,263.49Zm-17.42-7.18c6.82,0,9.26-5.24,9.26-9.87a9.05,9.05,0,0,0-9.14-8.77H640.69v18.64Zm13,26.92c0-5.36-4-10.11-12.31-10.11H640.69v20.22h19.13C667.74,293.34,671.76,288.47,671.76,283.23Z" transform="translate(-5.56 -2.15)"/><path class="cls-1" d="M719.27,310V221h39.6C778,221,791,233.65,791,251.92c0,12.91-7.06,23.51-18.15,28.26,7.67,9.63,15.84,20.35,23,29.85h-23c-7.31-9.14-14-18-21.32-27.77H738.4V310Zm39.6-44.47c6,0,13-4.38,13-13.64,0-4.63-1.7-14.25-13-14.25H738.4v27.89Z" transform="translate(-5.56 -2.15)"/><path class="cls-1" d="M950.87,294.44c10.6,0,16.44-4.87,16.44-9.87,0-7.07-9.5-8.89-19.85-10.72-11.21-1.83-35.33-6-35.33-27.29s19.61-26.92,35.33-26.92,25.46,4.75,35.2,11.93l-10.72,14.62c-7.67-5.48-16.57-9.13-25.22-9.13-5.6,0-15.35,1.7-15.35,8.77,0,6.33,9.63,7.8,17.67,9.5,14.5,3,37.52,4.87,37.52,28.75,0,18.52-14.37,27.66-35.45,27.66-19.25,0-31.92-6.83-40.2-13.89l10.23-14.74C927.6,288.47,940.63,294.44,950.87,294.44Z" transform="translate(-5.56 -2.15)"/><rect class="cls-1" x="814.67" y="291.04" width="63.61" height="16.84"/><path class="cls-1" d="M852,219.42a32.41,32.41,0,1,0,32.32,32.41A32.38,32.38,0,0,0,852,219.42Zm0,46.79a14.34,14.34,0,1,1,14.31-14.38A14.39,14.39,0,0,1,852,266.21Z" transform="translate(-5.56 -2.15)"/><rect class="cls-1" x="258.18" y="347.99" width="14.41" height="62.46"/><rect class="cls-1" x="703.89" y="347.99" width="14.41" height="62.46"/><path class="cls-1" d="M725.4,180.19H711a111.5,111.5,0,0,0-3.15-26.36c-14.7-60.25-34.64-103-53.35-114.51-25.36-15.53-75.44-22.76-157.61-22.76S364.63,23.79,339.26,39.32c-18.71,11.46-38.65,54.27-53.34,114.51a111.5,111.5,0,0,0-3.15,26.36H268.35a125.52,125.52,0,0,1,3.57-29.77C281.21,112.33,301.33,45.65,331.74,27c28.1-17.21,79-24.88,165.14-24.88S633.91,9.82,662,27c30.41,18.62,50.53,85.3,59.82,123.39A126,126,0,0,1,725.4,180.19Z" transform="translate(-5.56 -2.15)"/><path class="cls-1" d="M709.74,451.68q10.78-1.19,21.64-2.53l-1.77-14.3c-244.35,30.26-466.22.32-468.43,0l-2,14.28c.41.06,8.05,1.09,21.74,2.56v24.19h0a32.28,32.28,0,0,0,64.55,0h0v-.08h0V457.38c40.6,2.87,93.34,5.39,153.5,5.39,45.22,0,94.63-1.42,146.2-5.19v18.31h0a32.27,32.27,0,0,0,64.54,0h0v-.08h0Z" transform="translate(-5.56 -2.15)"/><path class="cls-1" d="M689.83,180.19a102.9,102.9,0,0,0-2.93-24.47c-6.57-27-23.94-88.16-49.33-103.7C619,40.67,583.31,31.25,496.88,31.25S374.72,40.67,356.18,52c-25.38,15.54-42.75,76.74-49.33,103.7a103.41,103.41,0,0,0-2.93,24.47H689.83ZM672,157.65c.66,2.68,1.19,5.39,1.61,8.12H514.69v0c-5.92,0-10.38-4.22-10.38-9.82V68.44a21.62,21.62,0,0,1,6.61-15.77,23.84,23.84,0,0,1,17.69-6.41v-.14c57.08,2,83.28,9.66,97.89,18.61C649.9,79.05,665.9,132.8,672,157.65ZM367.25,64.73c14.63-9,40.87-16.61,98.12-18.62v.15a23.79,23.79,0,0,1,17.68,6.41,21.62,21.62,0,0,1,6.61,15.77v87.49c0,5.6-4.46,9.82-10.37,9.82v0H320.19q.63-4.1,1.6-8.12C327.85,132.8,343.86,79.05,367.25,64.73Z" transform="translate(-5.56 -2.15)"/></svg>